PathFileType	4	(X/Y/Z)	C:/Users/beibeiliu/ov580/test_trc\sequence.17_training_dense_left.trc
DataRate	CameraRate	NumFrames	NumMarkers	Units	OrigDataRate	OrigDataStartFrame	OrigNumFrames
120	120	8	19	mm	120	38	303
Frame#	Time	ThumbCMC			ThumbMCP			ThumbIP			ThumbTip			IndexMCP			IndexPIP			IndexTip			MiddleMCP			MiddlePIP			MiddleTip			RingMCP			RingPIP			RingTip			PinkyMCP			PinkyPIP			PinkyTip			BackHand1			BackHand2			BackHand3	
		X0	Y0	Z0	X1	Y1	Z1	X2	Y2	Z2	X3	Y3	Z3	X4	Y4	Z4	X5	Y5	Z5	X6	Y6	Z6	X7	Y7	Z7	X8	Y8	Z8	X9	Y9	Z9	X10	Y10	Z10	X11	Y11	Z11	X12	Y12	Z12	X13	Y13	Z13	X14	Y14	Z14	X15	Y15	Z15	X16	Y16	Z16	X17	Y17	Z17	X18	Y18	Z18	
37	0.308333	-184.976	21.2889	32.757	-170.194	16.4697	12.3817	-156.644	16.3423	1.79012	-138.385	18.0345	-1.72278	-195.049	42.9972	-34.4123	-194.006	45.5162	-53.5472	-192.466	49.665	-74.1983	-212.421	18.2737	-33.798	-206.108	-11.0977	-31.7041	-205.757	-6.84086	-0.264862	-227.367	7.67182	-25.9853	-212.357	-12.9329	-10.8399	-214.97	2.16695	15.0952	-241.842	5.7665	-18.2317	-227.496	-12.0457	-4.72187	-217.946	1.95192	13.5125	-230.742	39.6411	13.2099	-236.269	38.3913	38.6823	-205.147	43.1669	24.5412	
38	0.316667	-187.208	22.5458	32.4107	-168.901	15.4141	14.5931	-153.841	18.2045	0.963684	-142.366	17.9794	-5.88862	-194.022	44.5006	-30.0858	-191.045	47.8059	-53.9885	-196.002	52.5276	-74.0355	-207.92	20.7698	-35.1429	-205.914	-9.7468	-31.7085	-205.29	-2.89874	1.48498	-223.503	8.87024	-27.6153	-214.146	-11.9296	-13.2711	-213.055	0.868187	11.8621	-238.674	5.36178	-18.9046	-228.209	-11.2876	-5.55402	-221.75	6.06626	17.4739	-234.406	39.2483	11.7495	-231.086	39.1276	37.9942	-205.404	44.9894	25.5171	
39	0.325	-188.69	23.9742	31.3038	-174.879	16.8003	12.9562	-154.709	20.6368	-2.96306	-137.369	23.0749	-9.20499	-195.843	47.807	-35.5875	-194.185	50.3656	-51.5337	-195.509	56.8577	-75.9127	-213.323	19.6299	-38.3833	-207.224	-8.01474	-31.2673	-206.972	-3.92687	-2.21367	-224.15	12.0575	-28.4367	-215.79	-9.55873	-13.3594	-216.079	4.1908	12.7845	-239.734	5.13876	-20.5749	-227.317	-8.50616	-5.85436	-223.409	9.13424	14.0261	-232.526	43.4832	10.8613	-234.873	39.1132	36.968	-206.006	44.8806	26.6446	
40	0.333333	-183.745	25.3524	28.9679	-172.884	20.1696	9.43545	-155.418	23.3248	-3.51922	-139.239	24.3701	-8.80017	-198.382	51.2902	-36.2572	-195.51	53.4834	-55.0724	-199.339	59.1683	-74.7509	-213.766	22.9334	-38.9435	-208.029	-4.73862	-35.2254	-202.024	0.261114	-3.71705	-228.183	13.0575	-29.9636	-216.486	-7.8627	-16.7423	-214.305	8.1355	9.649	-240.498	11.3548	-22.1341	-229.772	-6.97896	-8.29123	-220.998	9.17107	11.6375	-237.598	44.4983	6.56268	-235.194	40.7982	36.5029	-210.3	47.6122	24.7178	
41	0.341667	-184.556	27.8993	28.2122	-176.31	19.394	9.60968	-154.744	23.991	-7.05176	-141.835	26.4962	-14.1313	-196.572	52.9972	-34.4256	-196.556	56.2088	-53.3865	-200.716	61.3765	-74.5839	-214.998	25.442	-41.2755	-208.441	-2.4882	-36.9741	-208.42	2.04233	-4.19558	-230.725	16.5856	-31.5368	-216.361	-3.75084	-19.1825	-213.495	9.35813	5.97597	-244.39	10.88	-23.5307	-229.539	-3.74895	-9.283	-224.901	13.0152	13.1009	-235.922	46.8265	7.14935	-232.706	42.8846	35.133	-208.264	48.7312	24.8017	
42	0.35	-187.633	28.8257	23.3761	-173.197	21.3815	7.54038	-160.781	24.5282	-12.4842	-146.236	24.4837	-17.8954	-194.641	56.1281	-35.3418	-196.905	59.3056	-58.8818	-198.863	66.4026	-80.6546	-215.603	27.5795	-43.2667	-212.569	-0.0426823	-38.4927	-204.695	6.13749	-5.75799	-231.743	20.0159	-31.9099	-222.405	-2.85086	-17.6716	-215.814	11.3305	5.21507	-245.834	15.1995	-24.0044	-230.448	-0.284615	-11.2362	-223.02	14.747	9.05308	-235.346	50.0959	8.56971	-234.212	45.3348	35.2247	-209.301	50.6859	23.1208	
43	0.358333	-186.741	29.1792	22.9736	-178.256	21.9752	2.48926	-163.056	21.6409	-10.8183	-144.794	22.0489	-21.5577	-199.466	56.8536	-39.3887	-194.649	60.2	-57.39	-198.071	66.5446	-77.5933	-219.057	32.9588	-42.0887	-212.191	1.5902	-40.3994	-209.502	5.48042	-10.1385	-231.492	21.1474	-34.8353	-224.2	0.527224	-23.0533	-219.972	12.2449	4.93936	-243.932	19.4627	-26.4304	-233.552	2.86405	-13.4402	-224.012	14.781	6.26398	-233.146	54.5105	4.42874	-236.452	49.8299	33.9537	-206.656	52.6049	21.8526	
44	0.366667	-190.492	28.8967	22.1204	-176.102	18.6459	0.794145	-159.385	19.4484	-17.2173	-149.436	18.257	-26.3111	-194.838	55.8978	-40.2081	-195.134	59.8265	-59.4854	-197.672	67.1267	-82.884	-216.183	36.1055	-43.6041	-218.679	6.14828	-45.0682	-211.056	6.02532	-11.7666	-234.352	23.7556	-36.5327	-227.71	3.03179	-25.1616	-221.701	14.086	3.01125	-247.414	27.6929	-26.1164	-235.83	6.43712	-12.665	-223.58	22.3849	5.02186	-231.885	56.8708	4.69998	-228.535	53.2709	31.3465	-202.935	55.8186	16.2837	
